Coordinates
version=1
nRows=10
nColumns=40
inDegrees=yes

Units are S.I. units (second, meters, Newtons, ...)
Angles are in degrees.

endheader
time	pelvis_tilt	pelvis_list	pelvis_rotation	pelvis_tx	pelvis_ty	pelvis_tz	hip_flexion_r	hip_adduction_r	hip_rotation_r	knee_angle_r	knee_angle_r_beta	ankle_angle_r	subtalar_angle_r	mtp_angle_r	hip_flexion_l	hip_adduction_l	hip_rotation_l	knee_angle_l	knee_angle_l_beta	ankle_angle_l	subtalar_angle_l	mtp_angle_l	lumbar_extension	lumbar_bending	lumbar_rotation	arm_flex_r	arm_add_r	arm_rot_r	elbow_flex_r	pro_sup_r	wrist_flex_r	wrist_dev_r	arm_flex_l	arm_add_l	arm_rot_l	elbow_flex_l	pro_sup_l	wrist_flex_l	wrist_dev_l
      3.77000000	     -5.56227643	     -3.33335461	    -14.45239493	      1.03564533	      0.92632166	      0.45578477	     19.58304818	      2.81155007	     -0.10900303	     20.13706112	     20.13706112	      8.24526568	      2.59019943	     -3.35017431	      0.90219215	     -5.79088335	    -16.42843747	     16.82880860	     16.82880860	     18.62466773	    -13.05738450	      3.48985129	     -8.71834501	      8.19344978	      0.23697586	    -19.21356848	    -11.28646944	     -5.91254251	     33.48656908	     46.01936343	      0.00000000	      0.00000000	     47.40823151	    -26.15950772	     -7.63529696	     68.19803234	     48.06412489	      0.00000000	      0.00000000
      3.79457143	     -5.69246598	     -3.55907609	    -14.06305129	      1.03663147	      0.92663969	      0.46091115	     19.09552265	      3.26795854	     -0.42671964	     20.00713074	     20.00713074	      8.61735905	      2.41147294	     -3.28163620	      0.66064484	     -6.43131848	    -16.29444993	     16.99279095	     16.99279095	     18.48348531	    -12.78955843	      3.57478693	     -8.64645851	      8.28064597	      0.17165721	    -19.21752426	    -11.49705158	     -5.88803390	     33.42462613	     46.01978712	      0.00000000	      0.00000000	     46.99480233	    -25.84179577	     -7.61460705	     68.17672965	     48.05751133	      0.00000000	      0.00000000
      3.81914286	     -5.79785745	     -3.69310301	    -13.62400367	      1.03748004	      0.92688243	      0.46591234	     18.64766627	      3.60914231	     -0.75424383	     19.93939192	     19.93939192	      9.01367478	      2.22440182	     -3.32187783	      0.44795784	     -6.95930617	    -16.06986176	     17.14674850	     17.14674850	     18.29809867	    -12.57471382	      3.63933576	     -8.57324715	      8.20828394	      0.06184180	    -19.20332526	    -11.64339814	     -5.88887782	     33.39401959	     46.02113970	      0.00000000	      0.00000000	     46.51825051	    -25.44058532	     -7.52234674	     68.09264033	     48.04515872	      0.00000000	      0.00000000
      3.84371429	     -5.93415319	     -4.10335093	    -13.14563377	      1.03828772	      0.92716615	      0.47108059	     17.93877549	      4.27603049	     -1.14994243	     19.42171677	     19.42171677	      9.25679764	      2.05809655	     -3.09249162	      0.37606520	     -7.90747030	    -15.95000507	     17.64824092	     17.64824092	     18.28228294	    -12.14053762	      3.63002412	     -8.54368353	      8.47552504	      0.11164654	    -19.19855177	    -11.83113790	     -5.83032872	     33.24080306	     46.02309142	      0.00000000	      0.00000000	     45.79710680	    -24.90931640	     -7.61432164	     68.00592072	     48.04179825	      0.00000000	      0.00000000
      3.86828571	     -6.03854079	     -4.39445396	    -12.61265101	      1.03894060	      0.92726602	      0.47618879	     17.36773898	      4.82540253	     -1.45796598	     19.14567704	     19.14567704	      9.61011200	      1.67445454	     -2.79431279	      0.41534641	     -8.80499759	    -15.96859007	     18.33913491	     18.33913491	     18.43728067	    -11.26714128	      3.59064644	     -8.50018723	      8.53098997	      0.03407269	    -18.97492569	    -11.94161199	     -5.67280254	     32.94360744	     46.02520567	      0.00000000	      0.00000000	     44.93163390	    -24.15997485	     -8.08355104	     67.86413184	     48.05761526	      0.00000000	      0.00000000
      3.89285714	     -6.01433114	     -4.46787495	    -12.05427158	      1.03960150	      0.92736429	      0.48107361	     16.89298214	      5.07972707	     -1.83281740	     19.20367817	     19.20367817	     10.04348609	      1.42224843	     -2.88551390	      0.26089006	     -9.29820749	    -15.55388890	     18.70491030	     18.70491030	     18.23806233	    -11.08806459	      3.58917807	     -8.54661173	      8.32017228	     -0.00358125	    -18.77024604	    -11.98829157	     -5.65784359	     32.94797780	     46.02558196	      0.00000000	      0.00000000	     43.88956137	    -23.47622951	     -7.93625271	     67.56327910	     48.03284486	      0.00000000	      0.00000000
      3.91742857	     -5.94913738	     -4.58803934	    -11.43448572	      1.04017756	      0.92737068	      0.48594305	     16.36429094	      5.37828680	     -2.26154967	     19.23212141	     19.23212141	     10.45776646	      1.12520125	     -2.94916065	      0.23759339	     -9.89607060	    -15.04014575	     19.38118221	     19.38118221	     18.07118024	    -10.95087806	      3.47023514	     -8.64435077	      8.15092303	     -0.00980007	    -18.43696122	    -12.01109254	     -5.63495434	     32.95409045	     46.02643219	      0.00000000	      0.00000000	     42.54356853	    -22.60953191	     -7.77978717	     67.13365935	     48.00271404	      0.00000000	      0.00000000
      3.94200000	     -6.20956854	     -5.04050852	    -10.72735079	      1.04029108	      0.92663788	      0.49095463	     16.14095426	      6.15878141	     -2.59392525	     19.21255486	     19.21255486	     10.92832620	      0.41867343	     -2.14350687	      1.15542390	    -11.24045386	    -14.70564919	     21.26148494	     21.26148494	     17.94734511	    -10.46717852	      2.11458616	     -8.37514158	      8.38794352	     -0.42034168	    -17.06056145	    -12.08163344	     -5.21206654	     30.98768637	     46.08777284	      0.00000000	      0.00000000	     40.92127239	    -21.27367390	     -9.98159041	     66.24288049	     48.08268303	      0.00000000	      0.00000000
      3.96657143	     -6.16671576	     -5.22810901	     -9.96134596	      1.04045866	      0.92606275	      0.49564074	     15.84310383	      6.53256420	     -3.07109522	     19.53278706	     19.53278706	     11.37944806	     -0.15279682	     -2.22776736	      1.79359405	    -12.08157416	    -13.86050136	     22.99360740	     22.99360740	     17.73095479	    -10.61059157	      1.52654172	     -8.45192349	      8.27391658	     -0.50923025	    -16.30995135	    -12.13460982	     -5.19799408	     31.02364797	     46.09139964	      0.00000000	      0.00000000	     39.15197222	    -20.26874968	     -9.80574488	     65.38142860	     48.03580729	      0.00000000	      0.00000000
      3.99114286	     -6.20497969	     -5.35174084	     -9.11112489	      1.04033278	      0.92505466	      0.50017737	     15.78303824	      6.86931149	     -3.48064055	     20.04419608	     20.04419608	     11.88753978	     -1.01809322	     -2.26413456	      2.89055293	    -12.94264730	    -12.87450687	     25.27143650	     25.27143650	     17.37424128	    -10.80500385	      0.50905286	     -8.42991996	      8.08257930	     -0.71193384	    -15.17815882	    -12.11853305	     -5.15509225	     30.91525871	     46.10254726	      0.00000000	      0.00000000	     37.22530106	    -19.13142643	     -9.78479409	     64.03878290	     47.99007351	      0.00000000	      0.00000000
